HIERARCHY
ROOT Hips
{
  OFFSET 267.745 86.9975 -272.335
  CHANNELS 6 Xposition Yposition Zposition Zrotation Xrotation Yrotation
  JOINT LeftUpLeg
  {
    OFFSET 8.64259 1.95398 -2.38835
    CHANNELS 3 Zrotation Xrotation Yrotation
    JOINT LeftLeg
    {
      OFFSET 43.7702 0 0
      CHANNELS 3 Zrotation Xrotation Yrotation
      JOINT LeftFoot
      {
        OFFSET 40.6238 0 0
        CHANNELS 3 Zrotation Xrotation Yrotation
        JOINT LeftToeBase
        {
          OFFSET 12.7242 0 0
          CHANNELS 3 Zrotation Xrotation Yrotation
          End Site
          {
            OFFSET 0 0 0
          }
        }
      }
    }
  }
  JOINT RightUpLeg
  {
    OFFSET -8.2249 1.95398 -2.59336
    CHANNELS 3 Zrotation Xrotation Yrotation
    JOINT RightLeg
    {
      OFFSET 43.5653 0 0
      CHANNELS 3 Zrotation Xrotation Yrotation
      JOINT RightFoot
      {
        OFFSET 40.6238 0 0
        CHANNELS 3 Zrotation Xrotation Yrotation
        JOINT RightToeBase
        {
          OFFSET 12.7242 0 0
          CHANNELS 3 Zrotation Xrotation Yrotation
          End Site
          {
            OFFSET 0 0 0
          }
        }
      }
    }
  }
  JOINT Spine
  {
    OFFSET 0.165834 0.87714 6.61349
    CHANNELS 3 Zrotation Xrotation Yrotation
    JOINT Spine1
    {
      OFFSET 7.38963 1.71661e-005 0
      CHANNELS 3 Zrotation Xrotation Yrotation
      JOINT Spine2
      {
        OFFSET 11.9445 1.14441e-005 0
        CHANNELS 3 Zrotation Xrotation Yrotation
        JOINT Spine3
        {
          OFFSET 14.7254 4.19617e-005 0
          CHANNELS 3 Zrotation Xrotation Yrotation
          JOINT Spine4
          {
            OFFSET 10.9679 0 0
            CHANNELS 3 Zrotation Xrotation Yrotation
            JOINT RightShoulder
            {
              OFFSET 2.46616 -1.6653 3.69651
              CHANNELS 3 Zrotation Xrotation Yrotation
              JOINT RightArm
              {
                OFFSET 13.0012 0 0
                CHANNELS 3 Zrotation Xrotation Yrotation
                JOINT RightForeArm
                {
                  OFFSET 28.7848 1.52588e-005 0
                  CHANNELS 3 Zrotation Xrotation Yrotation
                  JOINT RightHand
                  {
                    OFFSET 26.5688 1.52588e-005 0
                    CHANNELS 3 Zrotation Xrotation Yrotation
                    End Site
                    {
                      OFFSET 0 0 0
                    }
                  }
                }
              }
            }
            JOINT LeftShoulder
            {
              OFFSET 2.38034 -1.29275 -3.7523
              CHANNELS 3 Zrotation Xrotation Yrotation
              JOINT LeftArm
              {
                OFFSET 16.3182 6.10352e-005 0
                CHANNELS 3 Zrotation Xrotation Yrotation
                JOINT LeftForeArm
                {
                  OFFSET 27.0901 0 0
                  CHANNELS 3 Zrotation Xrotation Yrotation
                  JOINT LeftHand
                  {
                    OFFSET 24.5451 1.52588e-005 0
                    CHANNELS 3 Zrotation Xrotation Yrotation
                    End Site
                    {
                      OFFSET 0 0 0
                    }
                  }
                }
              }
            }
            JOINT Neck
            {
              OFFSET 5.0226 -0.0266342 0
              CHANNELS 3 Zrotation Xrotation Yrotation
              JOINT Head
              {
                OFFSET 6.69364 2.86102e-005 0
                CHANNELS 3 Zrotation Xrotation Yrotation
                End Site
                {
                  OFFSET 0 0 0
                }
              }
            }
          }
        }
      }
    }
  }
}
MOTION
Frames:	13
Frame Time:	0.0416667
-7.29805 81.5194 -7.84463 23.5523 -77.1299 24.5492 -175.68 53.4758 87.6705 -66.3071 6.97695 0.730459 76.028 15.5052 7.012 42.2069 -1.49859 2.96003 162.154 54.1642 89.4521 -64.5049 -19.8747 5.99001 72.9417 -15.9628 -9.99654 40.3867 -2.81109 3.77729 0.390519 13.7791 -90.7852 -0.683678 0.493357 -1.49667 -12.3554 0.427022 -1.51692 -34.886 0.920321 -1.27925 -14.8734 0.920326 -1.27926 97.7974 -18.9559 -93.0531 13.0869 8.94701 -78.9726 8.69065 27.3438 -8.62737 -8.12246 0.140755 -7.65288 -91.197 -30.1467 70.8535 -20.4221 -5.44111 -86.0316 1.67887 -15.7098 0.0732513 -6.07887 0.220966 -13.9835 7.30924 -3.81177 12.537 13.0751 -7.6989 -9.47304 
-7.35228 83.2821 -7.20913 21.6574 -77.2501 22.9779 -175.918 51.0254 88.6543 -62.5568 7.14052 0.620834 75.4704 14.4326 6.05926 40.8239 -1.37967 3.05149 163.95 51.4018 89.0883 -60.2624 -18.8211 6.15541 72.0405 -14.8777 -9.6876 40.0131 -2.72831 3.3876 0.360246 13.2039 -90.7293 0.466484 0.446793 -1.39991 -11.2051 0.38475 -1.41823 -33.7362 0.846834 -1.20097 -13.7236 0.846838 -1.20096 97.2447 -22.2503 -93.6902 12.9159 5.3552 -73.9295 10.6749 24.5866 -13.6548 -8.54108 0.148824 -7.6186 -91.4716 -33.4906 71.5353 -20.148 -3.27258 -80.2345 -0.558056 -13.0602 -1.24691 -6.63654 0.287033 -14.5198 10.234 -3.22363 13.5197 12.4528 -7.68656 -10.1455 
-7.23476 85.0847 -6.48406 25.1023 -77.1666 26.9023 -176.802 48.1695 89.424 -58.4522 7.58797 0.75498 74.4792 13.3582 5.61374 39.6224 -1.26632 2.47163 165.58 48.1404 88.3866 -56.2065 -16.5337 6.1957 71.6301 -13.1787 -7.64971 39.345 -2.59975 1.63904 0.283956 12.6214 -90.7512 1.6305 0.279253 -1.4563 -10.0413 0.214896 -1.4672 -32.5711 0.703991 -1.3051 -12.5585 0.703986 -1.30511 96.9988 -26.094 -93.4974 12.8692 1.47307 -68.5028 11.0169 19.6138 -18.2598 -7.13874 0.17639 -8.72787 -91.2859 -35.8774 72.6698 -19.8697 -1.04089 -73.9743 -3.04829 -10.061 -5.74341 -6.19808 0.241987 -14.3049 13.816 -2.7163 12.6069 10.4261 -7.13278 -9.78234 
-7.18923 86.8967 -5.56789 31.0149 -78.054 33.2287 -178.012 43.864 90.2474 -54.1826 8.07626 1.25639 73.4112 12.3067 5.4666 38.85 -1.18604 2.08582 166.912 43.5626 87.7876 -51.9004 -14.7841 6.2346 70.6895 -11.5825 -6.4638 38.6494 -2.43859 1.78788 0.179214 12.1324 -90.7632 2.60697 0.0593854 -1.48964 -9.06484 -0.00623312 -1.49082 -31.5937 0.504288 -1.40298 -11.5811 0.504293 -1.40296 96.4691 -30.6095 -93.7686 11.903 -1.89748 -61.8266 11.3294 16.127 -24.1789 -6.04256 0.157525 -8.99565 -90.9305 -38.3603 74.0514 -18.5967 1.39834 -67.3529 -6.46058 -11.4071 -10.9051 -5.41987 0.163537 -13.899 16.121 -2.50716 10.8729 8.66952 -6.37235 -8.3167 
-7.17198 88.5601 -4.48239 34.7741 -79.2588 37.2531 -178.489 39.5752 90.782 -50.2084 7.51633 1.70175 72.5905 11.0048 4.24753 37.9905 -1.11549 2.35628 168.514 38.9272 87.6324 -47.4066 -13.8941 5.85305 69.3098 -10.4601 -6.66643 38.4942 -2.40295 1.28444 0.151398 11.6273 -90.7836 3.61664 -0.0107828 -1.53405 -8.05521 -0.0782879 -1.53211 -30.5836 0.450712 -1.4664 -10.5709 0.450711 -1.46641 96.4182 -34.3487 -93.2258 12.1755 -5.20309 -55.4298 11.6328 15.0529 -29.469 -4.67946 0.125131 -9.39666 -90.5372 -41.1711 75.5081 -18.1529 3.78502 -61.084 -9.12425 -11.8464 -16.1401 -5.28162 0.155503 -14.0353 19.0813 -1.64533 10.956 5.42978 -5.5767 -8.03701 
-7.26935 90.0002 -3.31379 35.5356 -80.1962 36.8288 -177.931 35.5084 89.9245 -45.6534 7.63521 1.40638 71.2425 10.0071 4.38194 37.5873 -1.04959 1.5698 170.306 35.7437 86.4715 -44.2323 -12.7352 4.8605 68.8722 -9.44207 -5.67951 38.2429 -2.34402 1.09598 0.0899157 11.0315 -90.6014 4.80926 -0.0669006 -1.18025 -6.86221 -0.118781 -1.17618 -29.3933 0.290882 -1.14581 -9.38064 0.290881 -1.14582 96.6516 -38.3581 -92.1891 12.6505 -7.67673 -49.2007 10.368 12.901 -33.4546 -0.141471 -0.0637416 -10.9977 -90.1011 -42.8284 76.6534 -18.0981 6.48277 -54.625 -11.8083 -12.6898 -21.6803 -4.05242 0.0507967 -14.0368 19.9699 -1.23979 11.4429 2.88731 -5.26504 -8.45002 
-7.12529 91.3867 -2.07665 42.8473 -82.3225 44.1025 -178.023 30.0833 90.0528 -41.6357 6.731 1.86445 70.7645 9.17885 3.50048 36.8069 -0.975159 1.64544 171.573 30.5052 86.2536 -40.5855 -11.1156 3.98943 68.7607 -8.22639 -3.5105 36.4036 -1.89598 0.495615 0.107617 10.6255 -90.5268 5.62161 -0.0048098 -1.03458 -6.04976 -0.0503339 -1.03338 -28.5818 0.306328 -0.988212 -8.56916 0.306332 -0.988219 97.2963 -40.3665 -90.7717 15.2015 -10.7097 -43.2353 11.22 13.2355 -38.1928 -0.486141 -0.0408209 -10.3179 -89.7163 -43.8261 77.5194 -17.3599 9.11599 -48.6061 -14.0215 -12.7159 -26.9673 -2.59409 -0.071493 -13.2925 19.6747 -1.23171 10.3916 2.34773 -4.7937 -7.13554 
-7.05694 92.5755 -0.746662 54.9121 -84.252 56.3009 -178.011 24.8345 90.2994 -37.9127 5.43984 2.39882 70.5767 8.31444 1.93713 35.9337 -0.906144 1.92696 172.363 25.1244 86.4056 -36.6927 -9.73911 3.27333 68.8544 -7.46397 -1.77106 34.6206 -1.43843 -0.235077 0.123235 10.2543 -90.4818 6.36455 0.0421147 -0.94959 -5.30675 0.000282429 -0.950539 -27.8394 0.325547 -0.893043 -7.82672 0.325544 -0.893053 97.5661 -42.449 -90.0712 16.1152 -13.086 -37.4928 10.6965 12.3426 -42.2419 -1.11804 -0.00218709 -10.9077 -89.3368 -44.9171 78.379 -16.998 11.114 -43.3972 -15.0638 -11.9711 -31.1348 -3.50326 -0.00577736 -12.9416 21.0736 -1.07327 9.39789 -0.638359 -4.2233 -5.81857 
-7.1625 93.5005 0.493498 60.7067 -84.9152 61.7762 -177.871 21.2318 90.1792 -34.1424 5.18412 2.56853 69.7518 7.69855 1.66001 35.7208 -0.853044 1.32588 173.261 21.9494 86.3625 -33.8741 -7.88236 2.39693 68.8691 -6.34239 0.241914 33.602 -1.19551 0.0146899 0.0503616 9.73076 -90.3921 7.41144 -0.0690775 -0.76996 -4.25972 -0.102893 -0.766158 -26.7931 0.165509 -0.755127 -6.78045 0.16551 -0.755124 98.109 -43.7846 -89.0165 16.9783 -15.6587 -32.5275 9.29455 11.2126 -46.0353 0.589129 -0.0861885 -10.6068 -88.4539 -45.7513 79.9565 -16.7751 13.4577 -38.5526 -16.6511 -12.6607 -35.2769 -2.58429 -0.0743084 -13.0691 22.4213 -0.667644 8.70991 -4.86844 -3.5209 -5.25854 
-7.02092 94.229 1.52283 72.4927 -85.7931 73.7084 -178.061 17.7469 90.176 -31.173 4.43894 3.08193 69.102 7.18063 1.39769 35.5246 -0.833288 1.32543 173.705 18.6315 86.4964 -31.1496 -7.76475 1.93383 68.2201 -5.32857 1.0909 33.109 -1.05048 -0.45651 -0.0122847 9.23763 -90.3562 8.39752 -0.181562 -0.692704 -3.27359 -0.211864 -0.684046 -25.8073 0.0350115 -0.71525 -5.79461 0.0350163 -0.71525 98.234 -45.3399 -88.6721 17.0527 -18.3135 -27.6219 9.94974 11.8643 -50.2177 0.436818 -0.0709092 -9.97686 -87.4561 -47.1661 81.7959 -16.4791 15.4961 -33.4735 -18.7346 -13.5167 -40.1279 -2.69067 -0.067395 -12.701 19.8509 -0.496241 7.50842 -5.78569 -2.74737 -4.11439 
-7.11451 94.8077 2.4977 85.2367 -86.6467 86.3973 -177.835 14.6974 90.2415 -28.5437 4.16383 3.26864 68.7629 6.76704 0.932094 34.9981 -0.836145 2.19526 174.226 15.6658 86.7267 -28.4794 -7.45956 1.36251 67.8624 -4.82179 1.47932 32.5719 -0.931394 -0.165822 0.0117071 8.75481 -90.3114 9.36356 -0.116476 -0.608615 -2.30752 -0.143159 -0.602906 -24.8415 0.0718065 -0.61549 -4.82889 0.0718112 -0.61549 98.6509 -46.8785 -87.8705 16.9701 -20.8856 -22.7862 9.7894 11.9724 -54.6808 0.403651 -0.0661323 -9.40594 -86.8735 -47.89 82.8258 -17.339 16.8847 -28.8683 -19.9695 -13.88 -44.1244 -3.33045 -0.0285875 -11.7588 16.2726 -0.803887 7.13767 -6.55171 -2.6722 -5.15123 
-7.09498 95.459 3.56971 102.616 -87.3351 103.577 -177.55 11.3246 90.0358 -25.0365 4.21741 3.4395 67.4783 5.92197 1.6825 35.323 -0.80197 1.14497 174.44 12.5027 86.6664 -25.1536 -8.00477 0.943699 67.2761 -4.50788 1.30173 31.9249 -0.759682 -0.336124 0.0378807 8.28511 -90.249 10.3033 -0.0383813 -0.49128 -1.36774 -0.0599711 -0.489135 -23.9022 0.11104 -0.480115 -3.88953 0.111044 -0.480115 98.8111 -48.6935 -87.4869 17.2929 -22.5551 -18.0138 9.75735 12.0622 -58.7339 0.423511 -0.0685001 -9.58742 -86.0504 -48.4939 84.1907 -18.9644 17.863 -24.6182 -20.8064 -13.9717 -47.2553 -3.86432 -0.0105418 -10.5062 13.3776 -0.780919 5.93109 -8.66537 -2.07406 -4.9953 
-7.17614 96.1 4.51978 123.073 -87.5741 123.803 -176.764 7.7516 90.1563 -20.7403 4.46093 3.24052 66.7768 5.10633 0.892182 33.6318 -0.626901 1.08723 174.724 9.42484 86.5569 -21.5962 -7.55741 0.426558 66.5987 -3.22483 2.72334 30.5964 -0.451886 0.0216453 0.0815729 7.89539 -90.2094 11.083 0.065265 -0.423027 -0.58798 0.0465966 -0.425489 -23.1227 0.189383 -0.383857 -3.11002 0.189389 -0.383844 99.1445 -50.502 -86.8517 17.9444 -23.57 -13.4148 8.73167 11.562 -62.8851 -0.00579386 -0.0499147 -8.58399 -85.4845 -49.7164 85.2313 -20.2888 17.8518 -20.9113 -21.2496 -13.8645 -49.7675 -3.85741 -0.00235855 -11.1381 11.0905 -0.946366 4.50966 -10.7509 -1.72665 -4.39685 
